:FULLY-SPECIFIED
:FORCE-ALL-JOINTS-BE-3DOF
:DEGREES
611
root 5.60847 16.6744 -3.77458 0.0986556 52.4527 -7.92855
lfemur -17.9725 24.6784 -22.0081
ltibia 40.3861 -0 0
lfoot -32.5277 24.9959 0.00238726
ltoes 18.1731 -0 0
rfemur -52.9953 -17.9059 28.1472
rtibia 61.845 -0 0
rfoot 7.94661 29.8078 0.0267601
rtoes -3.51701 0 0
lowerback 3.55242 -3.31554 -4.93177
upperback 0.0798404 -4.59946 1.09572
thorax -1.42702 -2.26203 4.08696
lowerneck -8.37088 -9.3982 -0.51839
upperneck 14.9292 -13.4061 4.59485
head 6.26304 -6.16228 0.453399
lclavicle 9.58409e-14 9.38501e-15 -9.83973e-31
lhumerus -22.2571 -42.1959 92.9025
lradius 56.6605 -0 0
lwrist 20.5917 0 0
lhand -10.4161 0.360584 -0.00488856
lfingers 7.12502 -0 0
lthumb 15.5832 29.7575 -0.00390061
rclavicle 9.58409e-14 9.38501e-15 -9.83973e-31
rhumerus 21.9901 3.63418 -72.1004
rradius 118.397 -0 0
rwrist -58.7136 0 0
rhand -27.0284 -22.449 0.00470606
rfingers 7.12502 -0 0
rthumb -0.447526 -52.4274 0.00452477
612
root 5.60143 16.6863 -3.77736 0.586086 50.9276 -7.66535
lfemur -17.8197 24.7039 -22.0196
ltibia 40.0206 -0 0
lfoot -32.5408 24.7881 0.00379367
ltoes 18.7954 -0 0
rfemur -52.8432 -17.9702 28.0235
rtibia 61.9193 -0 0
rfoot 7.84722 29.2166 0.0449193
rtoes -3.27777 0 0
lowerback 3.36757 -3.35548 -4.85573
upperback -0.0466546 -4.64352 1.1257
thorax -1.45185 -2.28132 4.06939
lowerneck -8.48839 -9.26851 -0.405657
upperneck 14.9689 -13.2384 4.51571
head 6.276 -6.07909 0.419116
lclavicle 9.35246e-14 8.13937e-15 -2.20904e-30
lhumerus -22.2856 -42.976 93.4084
lradius 57.1926 -0 0
lwrist 20.5276 0 0
lhand -10.2434 0.351987 -0.00927979
lfingers 7.12502 -0 0
lthumb 15.7498 29.7399 -0.00740397
rclavicle 9.35246e-14 8.13937e-15 -2.20904e-30
rhumerus 21.1315 3.4499 -71.7075
rradius 117.447 -0 0
rwrist -58.5688 0 0
rhand -27.1597 -22.7101 0.00967256
rfingers 7.12502 -0 0
rthumb -0.574345 -52.6875 0.00929776
613
root 5.59861 16.699 -3.77941 1.07053 49.4377 -7.42437
lfemur -17.625 24.5971 -22.001
ltibia 39.6154 -0 0
lfoot -32.547 24.4598 0.00435993
ltoes 19.4237 -0 0
rfemur -52.604 -18.0014 27.7692
rtibia 61.9764 -0 0
rfoot 7.77113 28.3851 0.055424
rtoes -3.10679 0 0
lowerback 3.15951 -3.3862 -4.76226
upperback -0.182225 -4.67349 1.17262
thorax -1.47454 -2.29352 4.05807
lowerneck -8.60791 -9.14283 -0.293623
upperneck 15.0091 -13.0747 4.42818
head 6.28921 -5.99858 0.381972
lclavicle 9.02555e-14 6.63262e-15 -3.59623e-30
lhumerus -22.3488 -43.7604 93.9505
lradius 57.7893 -0 0
lwrist 20.4747 0 0
lhand -10.1092 0.319501 -0.0130773
lfingers 7.12502 -0 0
lthumb 15.8792 29.7006 -0.0104312
rclavicle 9.02555e-14 6.63262e-15 -3.59623e-30
rhumerus 20.1921 3.33614 -71.2348
rradius 116.479 -0 0
rwrist -58.3327 0 0
rhand -27.3051 -22.9739 0.0147477
rfingers 7.12502 -0 0
rthumb -0.714782 -52.9502 0.0141739
614
root 5.59957 16.7122 -3.78062 1.55323 47.9811 -7.20255
lfemur -17.394 24.372 -21.9574
ltibia 39.1763 -0 0
lfoot -32.5474 24.0234 0.00426334
ltoes 20.0542 -0 0
rfemur -52.2891 -18.0031 27.4002
rtibia 62.0183 -0 0
rfoot 7.71436 27.3381 0.0594911
rtoes -2.99713 0 0
lowerback 2.93122 -3.40841 -4.6538
upperback -0.32545 -4.69069 1.23427
thorax -1.49516 -2.29935 4.05225
lowerneck -8.72876 -9.02115 -0.18285
upperneck 15.048 -12.9151 4.33404
head 6.30216 -5.92073 0.342661
lclavicle 8.61316e-14 4.89748e-15 -5.06139e-30
lhumerus -22.4463 -44.5483 94.527
lradius 58.4428 -0 0
lwrist 20.4325 0 0
lhand -10.0097 0.26621 -0.0162468
lfingers 7.12502 -0 0
lthumb 15.9752 29.6424 -0.0129568
rclavicle 8.61316e-14 4.89748e-15 -5.06139e-30
rhumerus 19.1771 3.28895 -70.6951
rradius 115.491 -0 0
rwrist -58.0104 0 0
rhand -27.4627 -23.2421 0.0197872
rfingers 7.12502 -0 0
rthumb -0.866983 -53.2172 0.0190152
615
root 5.60388 16.7257 -3.78089 2.03504 46.5564 -6.99723
lfemur -17.1327 24.0426 -21.8938
ltibia 38.7092 -0 0
lfoot -32.5433 23.4914 0.00369799
ltoes 20.6832 -0 0
rfemur -51.9101 -17.9789 26.9324
rtibia 62.0475 -0 0
rfoot 7.67293 26.1005 0.0584881
rtoes -2.94182 0 0
lowerback 2.68567 -3.42282 -4.53281
upperback -0.474902 -4.69644 1.30842
thorax -1.51373 -2.29952 4.05118
lowerneck -8.85024 -8.90342 -0.0738938
upperneck 15.0836 -12.7595 4.23502
head 6.31434 -5.84553 0.301877
lclavicle 8.12509e-14 2.96667e-15 -6.51988e-30
lhumerus -22.5776 -45.3386 95.1361
lradius 59.1454 -0 0
lwrist 20.401 0 0
lhand -9.94081 0.195197 -0.0187987
lfingers 7.12502 -0 0
lthumb 16.0417 29.5682 -0.0149931
rclavicle 8.12509e-14 2.96667e-15 -6.51988e-30
rhumerus 18.092 3.30415 -70.1014
rradius 114.483 -0 0
rwrist -57.6069 0 0
rhand -27.6306 -23.5164 0.0246527
rfingers 7.12502 -0 0
rthumb -1.02909 -53.49 0.0236896
616
root 5.61112 16.7394 -3.78009 2.51646 45.1619 -6.80605
lfemur -16.8471 23.6229 -21.8153
ltibia 38.2198 -0 0
lfoot -32.5362 22.8764 0.00285808
ltoes 21.307 -0 0
rfemur -51.4788 -17.9322 26.3818
rtibia 62.0663 -0 0
rfoot 7.64286 24.697 0.0538187
rtoes -2.93391 0 0
lowerback 2.42583 -3.43016 -4.40174
upperback -0.629144 -4.69208 1.39283
thorax -1.53032 -2.29473 4.05413
lowerneck -8.97165 -8.78963 0.0326893
upperneck 15.1142 -12.6082 4.13287
head 6.32523 -5.77296 0.260312
lclavicle 7.57115e-14 8.72928e-16 -7.89064e-30
lhumerus -22.7421 -46.1302 95.7759
lradius 59.8895 -0 0
lwrist 20.3797 0 0
lhand -9.8986 0.109542 -0.0207724
lfingers 7.12502 -0 0
lthumb 16.0824 29.4808 -0.0165765
rclavicle 7.57115e-14 8.72928e-16 -7.89064e-30
rhumerus 16.9422 3.3772 -69.4666
rradius 113.455 -0 0
rwrist -57.1273 0 0
rhand -27.8067 -23.7984 0.0292116
rfingers 7.12502 -0 0
rthumb -1.19925 -53.7706 0.0280701
617
root 5.62085 16.7531 -3.77812 2.99774 43.7958 -6.62685
lfemur -16.5431 23.1272 -21.727
ltibia 37.714 -0 0
lfoot -32.5271 22.1908 0.00192337
ltoes 21.9219 -0 0
rfemur -51.007 -17.8669 25.7645
rtibia 62.0769 -0 0
rfoot 7.62015 23.1522 0.046832
rtoes -2.96645 0 0
lowerback 2.1547 -3.43121 -4.26304
upperback -0.786743 -4.67896 1.48529
thorax -1.54496 -2.2857 4.06034
lowerneck -9.09233 -8.67974 0.136348
upperneck 15.1378 -12.4612 4.02931
head 6.33433 -5.70301 0.218657
lclavicle 6.96114e-14 -1.35102e-15 -9.09979e-30
lhumerus -22.9391 -46.9222 96.4445
lradius 60.6673 -0 0
lwrist 20.3683 0 0
lhand -9.87911 0.0123261 -0.0222231
lfingers 7.12502 -0 0
lthumb 16.1012 29.3829 -0.0177561
rclavicle 6.96114e-14 -1.35102e-15 -9.09979e-30
rhumerus 15.7333 3.5031 -68.8038
rradius 112.406 -0 0
rwrist -56.5765 0 0
rhand -27.9893 -24.0899 0.0333361
rfingers 7.12502 -0 0
rthumb -1.37561 -54.0605 0.0320345
618
root 5.63264 16.7665 -3.77486 3.47889 42.4567 -6.45769
lfemur -16.2263 22.5695 -21.6337
ltibia 37.1976 -0 0
lfoot -32.5176 21.4471 0.00104792
ltoes 22.524 -0 0
rfemur -50.5061 -17.7869 25.0962
rtibia 62.0815 -0 0
rfoot 7.60074 21.491 0.0387461
rtoes -3.03248 0 0
lowerback 1.87524 -3.42676 -4.11916
upperback -0.946262 -4.65843 1.58357
thorax -1.55769 -2.27314 4.06907
lowerneck -9.21158 -8.57374 0.236533
upperneck 15.1526 -12.3186 3.92606
head 6.34113 -5.63566 0.1776
lclavicle 6.30488e-14 -3.67244e-15 -1.00836e-29
lhumerus -23.1677 -47.7136 97.1397
lradius 61.4712 -0 0
lwrist 20.3667 0 0
lhand -9.87837 -0.0933722 -0.0232108
lfingers 7.12502 -0 0
lthumb 16.102 29.2775 -0.0185836
rclavicle 6.30488e-14 -3.67244e-15 -1.00836e-29
rhumerus 14.4706 3.67632 -68.1258
rradius 111.335 -0 0
rwrist -55.9598 0 0
rhand -28.1764 -24.3926 0.036904
rfingers 7.12502 -0 0
rthumb -1.5563 -54.3616 0.0354657
619
root 5.64607 16.7795 -3.7702 3.95976 41.1429 -6.29677
lfemur -15.9024 21.9639 -21.5399
ltibia 36.6765 -0 0
lfoot -32.5087 20.6579 0.000351593
ltoes 23.1098 -0 0
rfemur -49.9879 -17.6968 24.3928
rtibia 62.0826 -0 0
rfoot 7.5805 19.7382 0.0305885
rtoes -3.12505 0 0
lowerback 1.59043 -3.41764 -3.97254
upperback -1.10627 -4.63187 1.68547
thorax -1.56856 -2.25777 4.07958
lowerneck -9.32871 -8.47161 0.332697
upperneck 15.1567 -12.1806 3.82483
head 6.34513 -5.5709 0.137832
lclavicle 5.61215e-14 -6.05861e-15 -1.0791e-29
lhumerus -23.427 -48.5034 97.8595
lradius 62.2936 -0 0
lwrist 20.3745 0 0
lhand -9.89241 -0.204474 -0.0237907
lfingers 7.12502 -0 0
lthumb 16.0884 29.1674 -0.0191054
rclavicle 5.61215e-14 -6.05861e-15 -1.0791e-29
rhumerus 13.1593 3.89074 -67.4451
rradius 110.243 -0 0
rwrist -55.2822 0 0
rhand -28.3661 -24.7081 0.0397998
rfingers 7.12502 -0 0
rthumb -1.73946 -54.6754 0.0382525
620
root 5.6607 16.7918 -3.76402 4.44001 39.8526 -6.1424
lfemur -15.5764 21.3248 -21.4497
ltibia 36.1564 -0 0
lfoot -32.5019 19.8357 -8.60144e-05
ltoes 23.6755 -0 0
rfemur -49.4636 -17.6016 23.6699
rtibia 62.0823 -0 0
rfoot 7.55525 17.9183 0.0231535
rtoes -3.23719 0 0
lowerback 1.30325 -3.40473 -3.82562
upperback -1.26535 -4.60069 1.7888
thorax -1.57761 -2.2403 4.09112
lowerneck -9.44305 -8.37336 0.424296
upperneck 15.1484 -12.0472 3.72731
head 6.34581 -5.50871 0.100038
lclavicle 4.89278e-14 -8.4768e-15 -1.11852e-29
lhumerus -23.7158 -49.2906 98.6014
lradius 63.1266 -0 0
lwrist 20.3915 0 0
lhand -9.91728 -0.317902 -0.0240072
lfingers 7.12502 -0 0
lthumb 16.0645 29.0553 -0.0193568
rclavicle 4.89278e-14 -8.4768e-15 -1.11852e-29
rhumerus 11.8044 4.1396 -66.7743
rradius 109.128 -0 0
rwrist -54.5487 0 0
rhand -28.5564 -25.0382 0.0419157
rfingers 7.12502 -0 0
rthumb -1.92324 -55.0038 0.0402915
621
root 5.67611 16.8033 -3.75622 4.91918 38.5841 -5.99301
lfemur -15.2535 20.6665 -21.367
ltibia 35.6432 -0 0
lfoot -32.4984 18.9929 -0.000228433
ltoes 24.2173 -0 0
rfemur -48.9442 -17.5067 22.943
rtibia 62.083 -0 0
rfoot 7.52075 16.0563 0.016977
rtoes -3.36195 0 0
lowerback 1.01667 -3.38893 -3.68083
upperback -1.42208 -4.56629 1.89135
thorax -1.58489 -2.22143 4.10295
lowerneck -9.55392 -8.27897 0.510788
upperneck 15.1257 -11.9187 3.6352
head 6.34269 -5.44909 0.0649065
lclavicle 4.15655e-14 -1.08943e-14 -1.12454e-29
lhumerus -24.0328 -50.0745 99.3629
lradius 63.9626 -0 0
lwrist 20.4174 0 0
lhand -9.949 -0.430578 -0.0238882
lfingers 7.12502 -0 0
lthumb 16.0339 28.9441 -0.0193576
rclavicle 4.15655e-14 -1.08943e-14 -1.12454e-29
rhumerus 10.4105 4.41545 -66.1254
rradius 107.991 -0 0
rwrist -53.7644 0 0
rhand -28.7454 -25.3845 0.043154
rfingers 7.12502 -0 0
rthumb -2.10577 -55.3483 0.0414886
622
root 5.69186 16.8137 -3.74667 5.39667 37.3359 -5.84709
lfemur -14.9383 20.0033 -21.2954
ltibia 35.1426 -0 0
lfoot -32.4995 18.1421 -8.25061e-05
ltoes 24.7316 -0 0
rfemur -48.4407 -17.4182 22.2271
rtibia 62.0869 -0 0
rfoot 7.47269 14.1768 0.0123291
rtoes -3.49238 0 0
lowerback 0.73363 -3.3712 -3.54058
upperback -1.57505 -4.53009 1.99095
thorax -1.59043 -2.2019 4.11433
lowerneck -9.66063 -8.18845 0.59163
upperneck 15.0869 -11.7951 3.55017
head 6.33525 -5.39202 0.0331227
lclavicle 3.41328e-14 -1.32783e-14 -1.09673e-29
lhumerus -24.3765 -50.8541 100.141
lradius 64.7939 -0 0
lwrist 20.4518 0 0
lhand -9.98362 -0.539424 -0.023443
lfingers 7.12502 -0 0
lthumb 16.0005 28.8367 -0.0191098
rclavicle 3.41328e-14 -1.32783e-14 -1.09673e-29
rhumerus 8.98207 4.71017 -65.5103
rradius 106.83 -0 0
rwrist -52.9344 0 0
rhand -28.9312 -25.7487 0.04343
rfingers 7.12502 -0 0
rthumb -2.2852 -55.7109 0.0417615
